<svg viewBox="0 0 48 48" fill="none" xmlns="http://www.w3.org/2000/svg" id="Github--Streamline-Unicons" height="48" width="48">
  <desc>
    Github Streamline Icon: https://streamlinehq.com
  </desc>
  <path d="M23.9998 1.0604c-5.5848 0.0002 -10.9874 1.9878 -15.2408 5.6068C4.5054 10.2862 1.6784 15.3008 0.7838 20.8136c-0.8946 5.5126 0.2016 11.1638 3.0924 15.9424 2.8906 4.7782 7.3874 8.3722 12.6856 10.1386 1.176 0.2058 1.617 -0.4998 1.617 -1.1172 0 -0.5586 -0.0294 -2.4108 -0.0294 -4.3806 -5.9094 1.0878 -7.4382 -1.4404 -7.9086 -2.7634 -0.522 -1.2866 -1.3494 -2.4268 -2.4108 -3.3222 -0.8232 -0.441 -1.9992 -1.5288 -0.0294 -1.5582 0.7522 0.0816 1.4734 0.3434 2.103 0.763 0.6294 0.4196 1.1486 0.985 1.5132 1.6478 0.3216 0.5778 0.7542 1.0866 1.2728 1.497 0.5186 0.4104 1.1132 0.7146 1.7496 0.8946 0.6364 0.1802 1.302 0.2332 1.9588 0.1558s1.292 -0.2836 1.8688 -0.607c0.1018 -1.1958 0.6348 -2.3138 1.4996 -3.1458 -5.2332 -0.588 -10.7016 -2.6166 -10.7016 -11.613 -0.033 -2.3374 0.8294 -4.599 2.4108 -6.3208 -0.719 -2.0316 -0.635 -4.2612 0.2352 -6.2328 0 0 1.9696 -0.6174 6.468 2.4108 3.8484 -1.0584 7.9112 -1.0584 11.7598 0 4.4982 -3.0576 6.468 -2.4108 6.468 -2.4108 0.8702 1.9716 0.9544 4.2012 0.2352 6.2328 1.5858 1.7188 2.4494 3.9826 2.4108 6.3208 0 9.0258 -5.4978 11.025 -10.731 11.613 0.5612 0.5688 0.9934 1.252 1.2674 2.0026 0.274 0.751 0.3832 1.552 0.3202 2.3486 0 3.146 -0.0294 5.674 -0.0294 6.4678 0 0.6174 0.441 1.3524 1.617 1.1172 5.2888 -1.7806 9.7726 -5.383 12.651 -10.1638 2.8786 -4.781 3.9642 -10.4294 3.0634 -15.9368 -0.9008 -5.5072 -3.7294 -10.5152 -7.9812 -14.1298C34.9784 3.0494 29.5804 1.0634 23.9998 1.0604Z" fill="#000000" stroke-width="2"></path>
</svg>