<svg viewBox="0 0 48 48" fill="none" xmlns="http://www.w3.org/2000/svg" id="Linkedin--Streamline-Unicons" height="48" width="48">
  <desc>
    Linkedin Streamline Icon: https://streamlinehq.com
  </desc>
  <path d="M43.9212 0.4804H4.0788C3.631 0.474 3.1862 0.5562 2.77 0.7218 2.354 0.8876 1.9746 1.1336 1.6534 1.4458 1.3324 1.7582 1.076 2.1306 0.899 2.542c-0.1772 0.4114 -0.2714 0.8538 -0.2776 1.3016v40.3128c0.0062 0.4478 0.1004 0.8902 0.2776 1.3016s0.4334 0.7838 0.7544 1.0962c0.3212 0.3124 0.7006 0.5584 1.1166 0.724 0.4162 0.1658 0.861 0.2478 1.3088 0.2414h39.8424c0.4478 0.0064 0.8926 -0.0756 1.3086 -0.2414 0.4164 -0.1656 0.7956 -0.4116 1.1168 -0.724 0.321 -0.3124 0.5774 -0.685 0.7544 -1.0962 0.1772 -0.4114 0.2714 -0.8538 0.2776 -1.3016V3.8436c-0.0062 -0.4478 -0.1004 -0.89 -0.2776 -1.3016 -0.177 -0.4114 -0.4334 -0.7838 -0.7544 -1.0962 -0.3212 -0.3122 -0.7004 -0.5584 -1.1168 -0.724 -0.416 -0.1656 -0.8608 -0.2478 -1.3086 -0.2414ZM14.8038 39.8522h-7.056V18.6846h7.056v21.1676ZM11.2758 15.721c-0.973 0 -1.9062 -0.3864 -2.5944 -1.0746 -0.688 -0.688 -1.0746 -1.6212 -1.0746 -2.5944 0 -0.973 0.3866 -1.9064 1.0746 -2.5944 0.6882 -0.6882 1.6214 -1.0746 2.5944 -1.0746 0.5168 -0.0586 1.04 -0.0074 1.5356 0.1502 0.4956 0.1576 0.9522 0.4182 1.34 0.7646 0.388 0.3464 0.6982 0.7708 0.9108 1.2454 0.2124 0.4746 0.3224 0.9888 0.3224 1.5088 0 0.52 -0.11 1.0342 -0.3224 1.5088 -0.2126 0.4746 -0.5228 0.899 -0.9108 1.2454 -0.3878 0.3464 -0.8444 0.607 -1.34 0.7646 -0.4956 0.1578 -1.0188 0.209 -1.5356 0.1504ZM40.252 39.8522h-7.0558v-11.36c0 -2.8458 -1.0114 -4.7038 -3.575 -4.7038 -0.7934 0.0058 -1.566 0.2546 -2.2136 0.713s-1.1392 1.1042 -1.4084 1.8506c-0.1842 0.5528 -0.264 1.135 -0.2352 1.7168v11.76H18.708V18.661h7.056v2.987c0.6408 -1.1122 1.5732 -2.0286 2.6962 -2.6502 1.1234 -0.6216 2.3948 -0.925 3.6776 -0.8778 4.704 0 8.1142 3.034 8.1142 9.549v12.1832Z" fill="#000000" stroke-width="2"></path>
</svg>